<svg width="21" height="28" viewBox="0 0 21 28" fill="none" xmlns="http://www.w3.org/2000/svg">
<path d="M0 2.32863C0 1.71104 0.138281 1.11874 0.384423 0.68204C0.630564 0.245337 0.964403 0 1.3125 0H19.6875C20.0356 0 20.3694 0.245337 20.6156 0.68204C20.8617 1.11874 21 1.71104 21 2.32863C21 2.94622 20.8617 3.53851 20.6156 3.97522C20.3694 4.41192 20.0356 4.65726 19.6875 4.65726H1.3125C0.964403 4.65726 0.630564 4.41192 0.384423 3.97522C0.138281 3.53851 0 2.94622 0 2.32863ZM0 13.9718C0 13.3542 0.138281 12.7619 0.384423 12.3252C0.630564 11.8885 0.964403 11.6431 1.3125 11.6431H19.6875C20.0356 11.6431 20.3694 11.8885 20.6156 12.3252C20.8617 12.7619 21 13.3542 21 13.9718C21 14.5894 20.8617 15.1817 20.6156 15.6184C20.3694 16.0551 20.0356 16.3004 19.6875 16.3004H1.3125C0.964403 16.3004 0.630564 16.0551 0.384423 15.6184C0.138281 15.1817 0 14.5894 0 13.9718ZM0 25.6149C0 24.9973 0.138281 24.405 0.384423 23.9683C0.630564 23.5316 0.964403 23.2863 1.3125 23.2863H19.6875C20.0356 23.2863 20.3694 23.5316 20.6156 23.9683C20.8617 24.405 21 24.9973 21 25.6149C21 26.2325 20.8617 26.8248 20.6156 27.2615C20.3694 27.6982 20.0356 27.9435 19.6875 27.9435H1.3125C0.964403 27.9435 0.630564 27.6982 0.384423 27.2615C0.138281 26.8248 0 26.2325 0 25.6149Z" fill="#050505" fill-opacity="0.5"/>
</svg>
