<svg width="43" height="36" viewBox="0 0 43 36" fill="none" xmlns="http://www.w3.org/2000/svg">
<g clip-path="url(#clip0_19_38)">
<path d="M14.9795 1.18409C10.6831 2.43191 6.9779 4.80031 4.40814 7.94141C1.83838 11.0825 0.539487 14.8307 0.702252 18.6356C0.865017 22.4404 2.48086 26.1012 5.31244 29.0803C8.14402 32.0595 12.0421 34.1999 16.4341 35.1872C19.9947 35.9564 23.7253 35.9902 27.305 35.2857C30.5479 34.6758 33.546 33.3714 36.0058 31.5C38.5659 29.4929 40.4242 26.9395 41.3808 24.1144C42.4202 21.0422 42.6052 17.8114 41.9216 14.67H21.9266V21.6141H33.5064C33.275 22.7216 32.779 23.7787 32.0483 24.722C31.3175 25.6653 30.3669 26.4755 29.2534 27.1041C27.8396 27.8875 26.2455 28.4144 24.5738 28.651C22.8973 28.912 21.1777 28.912 19.5012 28.651C17.8018 28.3572 16.1943 27.77 14.7812 26.9269C12.5108 25.5814 10.806 23.6698 9.91016 21.465C8.99939 19.2189 8.99939 16.784 9.91016 14.5378C10.5479 12.9634 11.602 11.53 12.9941 10.3444C14.587 8.96275 16.6038 7.97514 18.8231 7.48993C21.0424 7.00471 23.3784 7.04064 25.5749 7.59378C27.2909 8.03456 28.86 8.80506 30.1571 9.84377C31.4628 8.75628 32.7662 7.66596 34.0674 6.57284C34.7393 5.98503 35.4716 5.42534 36.1334 4.82346C34.1532 3.28086 31.8289 2.08044 29.2938 1.29096C24.677 -0.112503 19.6254 -0.15022 14.9795 1.18409Z" fill="white"/>
<path d="M14.9795 1.18405C19.625 -0.151164 24.6766 -0.11444 29.2937 1.28811C31.8294 2.08296 34.1526 3.28915 36.1301 4.83749C35.4582 5.43936 34.7494 6.00186 34.0641 6.58686C32.7606 7.67624 31.4583 8.76186 30.1571 9.84374C28.86 8.80502 27.2909 8.03452 25.5749 7.59374C23.3792 7.03867 21.0432 7.00066 18.8233 7.48389C16.6034 7.96712 14.5854 8.95291 12.9907 10.3331C11.5987 11.5187 10.5445 12.9522 9.9068 14.5266L2.94281 10.0125C5.4355 5.87407 9.75142 2.70849 14.9795 1.18405Z" fill="#E33629"/>
<path d="M1.09516 14.4844C1.46919 12.9312 2.09063 11.4272 2.94281 10.0125L9.9068 14.5378C8.99604 16.7839 8.99604 19.2189 9.9068 21.465C7.58659 22.965 5.26526 24.4725 2.94281 25.9875C0.810116 22.4334 0.159681 18.3839 1.09516 14.4844Z" fill="#F8BD00"/>
<path d="M21.9266 14.6672H41.9216C42.6052 17.8086 42.4202 21.0393 41.3808 24.1115C40.4242 26.9366 38.5659 29.49 36.0058 31.4972C33.7584 30.029 31.5009 28.5722 29.2534 27.104C30.3677 26.4748 31.3187 25.6638 32.0495 24.7194C32.7803 23.7751 33.2758 22.717 33.5064 21.6084H21.9266C21.9233 19.2965 21.9266 16.9819 21.9266 14.6672Z" fill="#587DBD"/>
<path d="M2.93945 25.9875C5.2619 24.4875 7.58323 22.98 9.90344 21.465C10.8011 23.6706 12.5083 25.5822 14.7812 26.9269C16.1987 27.7661 17.8097 28.3485 19.5113 28.6369C21.1878 28.898 22.9074 28.898 24.5839 28.6369C26.2556 28.4003 27.8497 27.8734 29.2635 27.09C31.5109 28.5582 33.7684 30.015 36.0159 31.4832C33.5564 33.3555 30.5583 34.6609 27.3151 35.2716C23.7354 35.9761 20.0048 35.9424 16.4441 35.1732C13.628 34.5436 10.9975 33.4339 8.71758 31.9135C6.30463 30.3093 4.33371 28.2879 2.93945 25.9875Z" fill="#319F43"/>
</g>
<defs>
<clipPath id="clip0_19_38">
<rect width="43" height="36" fill="white"/>
</clipPath>
</defs>
</svg>
