<svg width="21" height="28" viewBox="0 0 21 28" fill="none" xmlns="http://www.w3.org/2000/svg">
<path d="M0 2.32863C0 1.71104 0.138281 1.11874 0.384422 0.682039C0.630563 0.245337 0.964402 0 1.3125 0H19.6875C20.0356 0 20.3694 0.245337 20.6156 0.682039C20.8617 1.11874 21 1.71104 21 2.32863C21 2.94622 20.8617 3.53851 20.6156 3.97521C20.3694 4.41192 20.0356 4.65725 19.6875 4.65725H1.3125C0.964402 4.65725 0.630563 4.41192 0.384422 3.97521C0.138281 3.53851 0 2.94622 0 2.32863ZM0 13.9718C0 13.3542 0.138281 12.7619 0.384422 12.3252C0.630563 11.8885 0.964402 11.6431 1.3125 11.6431H19.6875C20.0356 11.6431 20.3694 11.8885 20.6156 12.3252C20.8617 12.7619 21 13.3542 21 13.9718C21 14.5894 20.8617 15.1816 20.6156 15.6183C20.3694 16.0551 20.0356 16.3004 19.6875 16.3004H1.3125C0.964402 16.3004 0.630563 16.0551 0.384422 15.6183C0.138281 15.1816 0 14.5894 0 13.9718ZM0 25.6149C0 24.9973 0.138281 24.405 0.384422 23.9683C0.630563 23.5316 0.964402 23.2863 1.3125 23.2863H19.6875C20.0356 23.2863 20.3694 23.5316 20.6156 23.9683C20.8617 24.405 21 24.9973 21 25.6149C21 26.2325 20.8617 26.8248 20.6156 27.2615C20.3694 27.6982 20.0356 27.9435 19.6875 27.9435H1.3125C0.964402 27.9435 0.630563 27.6982 0.384422 27.2615C0.138281 26.8248 0 26.2325 0 25.6149Z" fill="black" fill-opacity="0.5"/>
</svg>
